<svg xmlns="http://www.w3.org/2000/svg" version="1.1" xmlns:xlink="http://www.w3.org/1999/xlink" width="1000" height="1000"><g clip-path="url(#SvgjsClipPath1077)"><rect width="1000" height="1000" fill="#ffffff"></rect><g transform="matrix(9.367117278088074,0,0,9.367117278088074,5.684341886080802e-14,5.684341886080802e-14)"><svg xmlns="http://www.w3.org/2000/svg" version="1.1" xmlns:xlink="http://www.w3.org/1999/xlink" width="106.75643" height="106.75643"><svg id="klikniplayicon" data-name="klikniplayicon" viewBox="0 0 106.75643 106.75643" version="1.1" width="106.75643" height="106.75643" xmlns="http://www.w3.org/2000/svg" xmlns:svg="http://www.w3.org/2000/svg">
  <defs id="defs1">
    <style id="style1">
      .cls-1 {
        fill: #121212;
        stroke-width: 0px;
      }
    </style>
  <clipPath id="SvgjsClipPath1077"><rect width="1000" height="1000" x="0" y="0" rx="250" ry="250"></rect></clipPath></defs>
  <circle style="fill:#ffffff" id="path2" cx="53.378216" cy="53.378216" r="53.378216"></circle>
  <path class="cls-1" d="M 87.761749,43.171054 42.749748,16.65463 c -2.39516,-1.442317 -4.862107,-2.127578 -7.400844,-2.127578 -3.008632,0 -5.619157,0.959367 -7.805474,2.943368 -2.127579,1.918736 -3.217474,4.385685 -3.217474,7.26379 v 57.288011 c 0,2.878101 1.089895,5.345056 3.217474,7.257259 2.186317,1.990526 4.796842,2.9499 7.805474,2.9499 2.538737,0 5.005684,-0.685265 7.400844,-2.127581 l 13.64,-8.027375 0.08484,-0.05221 2.140632,-1.259581 C 57.616696,78.563269 53.289749,68.277794 52.682801,66.959477 v 0 c -0.0718,-0.163157 -0.137054,-0.300211 -0.195789,-0.430737 -0.01957,0.0066 -0.03263,0.01305 -0.05221,0.03264 -0.306737,0.169684 -0.633053,0.398105 -0.992,0.69179 -0.01957,0 -0.03264,0.01958 -0.03916,0.03264 -0.554738,0.456841 -1.174737,1.044209 -1.860001,1.775158 0,0.01958 -1.807789,1.846946 -5.436422,5.469052 -0.137052,0.130527 -0.339368,0.365474 -0.613473,0.698316 -0.01306,0.01958 -0.03263,0.03915 -0.04568,0.05221 -0.267581,0.326315 -0.476422,0.554736 -0.620001,0.704842 -0.137053,0.143579 -0.274105,0.267578 -0.417684,0.372001 -0.0066,0 -0.01957,0.01305 -0.03264,0.02611 -0.228421,0.169684 -0.469896,0.30021 -0.724422,0.385052 -0.189264,0.06526 -0.378527,0.104421 -0.574316,0.110948 -0.07831,-29.877477 -0.110947,-45.964847 -0.08484,-48.249058 0.01306,-1.827369 0.04568,-2.767158 0.08484,-2.825895 0.07831,-0.130526 0.202316,-0.19579 0.378526,-0.169685 0,0 0,0 0.01957,0.0066 0.326316,0.05875 1.168211,0.744001 2.538737,2.05579 0.835367,0.81579 1.990527,1.990527 3.465474,3.524211 1.768632,1.860001 2.832421,2.969474 3.204421,3.341474 1.742526,1.611999 4.026738,3.843999 6.83958,6.715578 3.348,3.393686 5.625686,5.664843 6.806948,6.813476 1.200842,1.161685 3.158737,3.158737 5.873686,5.984633 2.525684,2.58442 4.509683,4.568421 5.971578,5.965052 0.0979,0.07831 0.248,0.202315 0.463369,0.378527 0.195788,0.130526 0.339367,0.234947 0.437263,0.306736 0.01958,0.01305 0.03915,0.03263 0.05221,0.03916 0.228421,0.215368 0.371999,0.430737 0.437262,0.659159 0.03264,0.123999 0.05221,0.254526 0.03264,0.391578 -0.02611,0.07179 -0.06526,0.137052 -0.110947,0.189263 -0.169685,0.208843 -0.456842,0.306737 -0.848421,0.306737 -0.156631,0 -0.365474,-0.01957 -0.639579,-0.05875 -0.274105,-0.03915 -0.469895,-0.05874 -0.580843,-0.05874 -6.206526,-0.05874 -10.494316,0 -12.863368,0.202316 0.04568,0.123999 0.09789,0.254526 0.150105,0.385053 0.123998,0.30021 3.550316,8.99979 4.973053,12.628422 h 0.0066 l 0.07831,-0.04568 19.99663,-11.78 c 4.313902,-2.532212 6.506741,-5.958528 6.506741,-10.213686 0,-4.255158 -2.192839,-7.668421 -6.506741,-10.200631 z" id="path1"></path>
</svg></svg></g></g></svg>