<?xml version="1.0" encoding="UTF-8" standalone="no"?>
<svg
   id="klikniplayicon"
   data-name="klikniplayicon"
   viewBox="0 0 77.702 77.702"
   version="1.1"
   width="77.702003"
   height="77.702003"
   xmlns="http://www.w3.org/2000/svg"
   xmlns:svg="http://www.w3.org/2000/svg">
  <defs
     id="defs1">
    <style
       id="style1">
      .cls-1 {
        fill: #121212;
        stroke-width: 0px;
      }
    </style>
  </defs>
  <path
     class="cls-1"
     d="M 69.315483,28.644002 24.303482,2.127578 C 21.908322,0.685261 19.441375,0 16.902638,0 13.894006,0 11.283482,0.959367 9.0971645,2.943368 6.969586,4.862104 5.879691,7.329053 5.879691,10.207158 v 57.288011 c 0,2.878101 1.089895,5.345056 3.2174735,7.257259 2.1863175,1.990526 4.7968415,2.9499 7.8054735,2.9499 2.538737,0 5.005684,-0.685265 7.400844,-2.127581 5.291632,-3.107713 10.556466,-6.583634 15.912252,-9.839799 -2.697068,-5.887497 -4.051232,-8.462706 -6.334,-13.354 -0.794458,0.406438 -4.997268,4.511934 -8.656581,8.073596 -0.874501,0.79534 -1.029494,1.061703 -2.103326,1.849472 -0.441123,0.32361 -0.964514,0.0739 -0.973648,-0.421068 -0.259471,-14.061175 -0.684067,-32.649975 -0.735083,-45.757723 -0.01495,-1.767042 -0.05475,-1.825607 0.0092,-2.377265 0.06451,-0.468604 0.322631,-0.554668 0.699138,-0.408097 0.644141,0.350002 1.031276,0.738369 2.284293,1.834886 11.262258,10.112986 22.090486,20.720999 33.432476,30.744974 0.791739,0.65483 0.953845,0.767727 1.324089,1.27153 0.172342,0.234509 0.05111,0.513859 -0.124866,0.607371 -0.470833,0.250195 -1.19841,0.185106 -1.941004,0.215843 -6.355932,0.04508 -11.414091,0.5229 -13.836689,0.757397 2.565455,5.563332 3.525753,6.68112 6.039154,11.98865 h 0.0068 c 6.852978,-3.811226 13.318304,-7.760108 20.009884,-11.702113 4.313902,-2.532212 6.506741,-5.958528 6.506741,-10.213686 0,-4.255158 -2.192839,-7.668421 -6.506741,-10.200631 z"
     id="path1" />
</svg>
