<?xml version="1.0" encoding="UTF-8" standalone="no"?>
<!-- Created with Inkscape (http://www.inkscape.org/) -->

<svg
   version="1.1"
   id="svg1"
   width="443.43027"
   height="200.68889"
   viewBox="0 0 443.43027 200.68889"
   sodipodi:docname="Radio Košava - Logo1.svg"
   xml:space="preserve"
   inkscape:version="1.3.2 (091e20e, 2023-11-25, custom)"
   xmlns:inkscape="http://www.inkscape.org/namespaces/inkscape"
   xmlns:sodipodi="http://sodipodi.sourceforge.net/DTD/sodipodi-0.dtd"
   xmlns="http://www.w3.org/2000/svg"
   xmlns:svg="http://www.w3.org/2000/svg"><defs
     id="defs1" /><sodipodi:namedview
     id="namedview1"
     pagecolor="#ffffff"
     bordercolor="#000000"
     borderopacity="0.25"
     inkscape:showpageshadow="2"
     inkscape:pageopacity="0.0"
     inkscape:pagecheckerboard="0"
     inkscape:deskcolor="#d1d1d1"
     showgrid="false"
     inkscape:zoom="1.0852552"
     inkscape:cx="171.38826"
     inkscape:cy="34.554085"
     inkscape:window-width="1920"
     inkscape:window-height="1001"
     inkscape:window-x="-9"
     inkscape:window-y="-9"
     inkscape:window-maximized="1"
     inkscape:current-layer="g1" /><g
     inkscape:groupmode="layer"
     inkscape:label="Image"
     id="g1"
     transform="translate(-1.1523438,-0.56274948)"><path
       style="fill:#a1a6ac;fill-opacity:1;fill-rule:evenodd;stroke-width:0.7;stroke-linecap:round;stroke-linejoin:round"
       d="m 230.81451,140.78305 10.36622,-22.11462 c -56.65111,-16.91572 -79.88784,38.55041 -57.12942,45.84176 15.58214,4.99221 13.23557,14.10951 1.84289,15.43415 -13.05071,1.51742 -22.34498,-5.75901 -22.34498,-5.75901 l -17.27704,13.59127 c 0,0 11.05731,10.13587 26.03074,11.05731 14.97344,0.92144 36.4245,-9.39919 44.45959,-25.33966 12.02745,-23.86073 -8.48281,-25.6941 -12.43947,-28.79508 -3.97646,-3.11649 -0.92144,-6.68045 0.69108,-8.06261 1.61253,-1.38217 12.43948,-4.60721 25.80039,4.14649 z"
       id="path8-8"
       sodipodi:nodetypes="ccssccssssc" /><path
       style="fill:#a1a6ac;fill-opacity:1;fill-rule:evenodd;stroke-width:0.7;stroke-linecap:round;stroke-linejoin:round"
       d="m 204.32304,44.341018 3.68577,42.847065 18.88957,14.282357 46.07211,-5.067934 -15.2038,-12.900192 -31.46397,1.89878 -2.16867,-26.777721 z"
       id="path6-2"
       sodipodi:nodetypes="cccccccc" /><path
       id="rect1-9"
       style="fill:#a1a6ac;fill-opacity:1;fill-rule:evenodd"
       d="M 68.180832,77.894509 5.0616922,197.91209 l 24.6484368,0.23047 16.158203,-32.56836 1.34961,0.31836 2.763672,32.48046 26.03125,-0.6914 -4.376954,-45.8418 45.38086,-34.7832 -26.03125,-0.69141 -30.408203,24.87891 -2.726563,0.18164 31.521485,-63.531251 z" /><path
       id="rect1"
       style="fill:#ee0a76;fill-opacity:1;fill-rule:evenodd"
       d="M 64.271484,74.636719 1.1523438,194.6543 l 24.6484372,0.23047 16.158203,-32.56836 1.34961,0.31836 2.763672,32.48046 26.03125,-0.6914 -4.376954,-45.8418 45.380858,-34.7832 -26.031248,-0.69141 -30.408203,24.87891 -2.726563,0.18164 31.521485,-63.531251 z" /><path
       id="path4-8"
       style="fill:#a1a6ac;fill-opacity:1;fill-rule:evenodd;stroke-width:0.7;stroke-linecap:round;stroke-linejoin:round"
       d="m 279.57732,113.78123 c -15.26441,0.1996 -28.95117,7.65234 -28.95117,7.65234 l -0.92188,17.04492 c 40.65776,-14.06689 27.04906,7.3478 26.7207,7.14258 h -10.36523 c -17.04666,-1.1518 -39.62228,12.20865 -46.30273,28.10352 -6.68046,15.89486 -1.84212,23.49718 9.90625,25.80078 11.74837,2.30361 26.25976,-8.75391 26.25976,-8.75391 l 0.46094,6.91016 h 17.50781 c 0,0 20.73307,-43.76866 26.26172,-54.36524 5.52865,-10.59657 8.9833,-23.49641 -9.90625,-28.33398 -3.54179,-0.90704 -7.14737,-1.24723 -10.66992,-1.20117 z m -15.78906,47.86133 c 2.12898,-0.0148 3.84725,0.13242 4.80468,0.33398 l -9.21289,16.125 c 0,0 -19.12065,7.14063 -16.35634,-4.37739 2.15964,-8.99845 13.16103,-12.02887 20.76455,-12.08159 z"
       sodipodi:nodetypes="sccccsscccssssccss" /><path
       id="path4"
       style="opacity:1;fill:#fbde0a;fill-opacity:1;fill-rule:evenodd;stroke-width:0.7;stroke-linecap:round;stroke-linejoin:round"
       d="m 275.66797,110.52344 c -15.26441,0.1996 -28.95117,7.65234 -28.95117,7.65234 l -0.92188,17.04492 c 40.65776,-14.06689 27.04906,7.3478 26.7207,7.14258 h -10.36523 c -17.04666,-1.1518 -39.62228,12.20865 -46.30273,28.10352 -6.68046,15.89486 -1.84212,23.49718 9.90625,25.80078 11.74837,2.30361 26.25976,-8.75391 26.25976,-8.75391 l 0.46094,6.91016 h 17.50781 c 0,0 20.73307,-43.76866 26.26172,-54.36524 5.52865,-10.59657 8.9833,-23.49641 -9.90625,-28.33398 -3.54179,-0.90704 -7.14737,-1.24723 -10.66992,-1.20117 z m -15.78906,47.86133 c 2.12898,-0.0148 3.84725,0.13242 4.80468,0.33398 l -9.21289,16.125 c 0,0 -19.12065,7.14063 -16.35634,-4.37739 2.15964,-8.99845 13.16103,-12.02887 20.76455,-12.08159 z"
       sodipodi:nodetypes="sccccsscccssssccss" /><path
       id="path4-3-7"
       style="fill:#a1a6ac;fill-opacity:1;fill-rule:evenodd;stroke-width:0.7;stroke-linecap:round;stroke-linejoin:round"
       d="m 419.63654,113.78123 c -15.26441,0.1996 -28.95117,7.65234 -28.95117,7.65234 l -0.92188,17.04492 c 40.65776,-14.06689 27.04906,7.3478 26.7207,7.14258 h -10.36523 c -17.04666,-1.1518 -39.62228,12.20865 -46.30273,28.10352 -6.68046,15.89486 -1.84212,23.49718 9.90625,25.80078 11.74837,2.30361 26.25976,-8.75391 26.25976,-8.75391 l 0.46094,6.91016 h 17.50781 c 0,0 20.73307,-43.76866 26.26172,-54.36524 5.52865,-10.59657 8.9833,-23.49641 -9.90625,-28.33398 -3.54179,-0.90704 -7.14737,-1.24723 -10.66992,-1.20117 z m -15.78906,47.86133 c 2.12898,-0.0148 3.84725,0.13242 4.80468,0.33398 l -9.21289,16.125 c 0,0 -20.96353,6.21919 -18.19922,-5.29883 2.15964,-8.99845 15.00391,-11.10743 22.60743,-11.16015 z" /><path
       id="path4-3"
       style="opacity:1;fill:#0672ba;fill-opacity:1;fill-rule:evenodd;stroke-width:0.7;stroke-linecap:round;stroke-linejoin:round"
       d="m 415.72719,110.52344 c -15.26441,0.1996 -28.95117,7.65234 -28.95117,7.65234 l -0.92188,17.04492 c 40.65776,-14.06689 27.04906,7.3478 26.7207,7.14258 h -10.36523 c -17.04666,-1.1518 -39.62228,12.20865 -46.30273,28.10352 -6.68046,15.89486 -1.84212,23.49718 9.90625,25.80078 11.74837,2.30361 26.25976,-8.75391 26.25976,-8.75391 l 0.46094,6.91016 h 17.50781 c 0,0 20.73307,-43.76866 26.26172,-54.36524 5.52865,-10.59657 8.9833,-23.49641 -9.90625,-28.33398 -3.54179,-0.90704 -7.14737,-1.24723 -10.66992,-1.20117 z m -15.78906,47.86133 c 2.12898,-0.0148 3.84725,0.13242 4.80468,0.33398 l -9.21289,16.125 c 0,0 -20.96353,6.21919 -18.19922,-5.29883 2.15964,-8.99845 15.00391,-11.10743 22.60743,-11.16015 z" /><path
       style="fill:#a1a6ac;fill-opacity:1;fill-rule:evenodd;stroke-width:0.7;stroke-linecap:round;stroke-linejoin:round"
       d="m 325.95342,164.97091 7.83226,-47.915 -22.34497,-0.69108 -10.59659,82.00836 15.2038,-0.23036 73.0243,-81.54764 -23.03606,0.69108 z"
       id="path5-5" /><path
       style="opacity:1;fill:#16a652;fill-opacity:1;fill-rule:evenodd;stroke-width:0.7;stroke-linecap:round;stroke-linejoin:round"
       d="m 322.04407,161.71312 7.83226,-47.915 -22.34497,-0.69108 -10.59659,82.00836 15.2038,-0.23036 73.0243,-81.54764 -23.03606,0.69108 z"
       id="path5" /><path
       style="fill:#a1a6ac;fill-opacity:1;fill-rule:evenodd;stroke-width:0.763999;stroke-linecap:round;stroke-linejoin:round"
       d="m 248.60545,2.5174237 -15.51343,44.4158253 10.7349,16.995135 49.58043,21.437942 -9.30973,-19.716003 -32.05973,-12.266559 9.82899,-27.697468 z"
       id="path6-4-2"
       sodipodi:nodetypes="cccccccc" /><path
       style="opacity:1;fill:#ea2028;fill-opacity:1;fill-rule:evenodd;stroke-width:0.7;stroke-linecap:round;stroke-linejoin:round"
       d="m 200.41369,42.386344 3.68577,42.847065 18.88957,14.282356 46.07211,-5.067933 -15.2038,-12.900192 -31.46397,1.89878 -2.16867,-26.777721 z"
       id="path6"
       sodipodi:nodetypes="cccccccc" /><path
       id="path9-8"
       style="fill:#a1a6ac;fill-opacity:1;fill-rule:evenodd;stroke-width:0.889678;stroke-linecap:round;stroke-linejoin:round"
       d="m 102.93757,139.19555 c -20.155436,20.62946 -26.817738,46.46156 -10.814231,57.93447 16.003521,11.47291 42.542861,-2.52309 62.548611,-23.29775 42.97925,-44.63114 -1.01171,-86.552313 -51.73438,-34.63672 z m 34.10742,-5.04101 c 1.57399,0.0531 3.10436,0.45238 4.5586,1.24609 7.75605,4.23317 4.50638,15.33086 -2.77213,26.20898 -7.27867,10.87807 -16.8078,20.02425 -24.56381,15.79102 -7.75601,-4.23315 -4.88409,-17.49105 2.39453,-28.36914 5.91391,-8.83838 13.56222,-15.10717 20.38281,-14.87695 z"
       sodipodi:nodetypes="sssssscsss" /><path
       style="fill:#a1a6ac;fill-opacity:1;fill-rule:evenodd;stroke-width:0.7;stroke-linecap:round;stroke-linejoin:round"
       d="m 340.11332,65.155807 -9.77337,-27.365439 -20.84986,-10.750708 13.03116,41.699717 25.73654,13.35694 43.65439,-13.35694 -21.82719,-10.099151 z"
       id="path7-7" /><path
       style="opacity:1;fill:#f27226;fill-opacity:1;fill-rule:evenodd;stroke-width:0.763999;stroke-linecap:round;stroke-linejoin:round"
       d="M 244.6961,0.56274948 229.18267,44.978575 241.53009,67.732724 289.498,83.411652 280.18827,63.695649 248.12854,51.42909 257.95753,23.731622 Z"
       id="path6-4"
       sodipodi:nodetypes="cccccccc" /><path
       style="opacity:1;fill:#fbde0a;fill-opacity:1;fill-rule:evenodd;stroke-width:0.7;stroke-linecap:round;stroke-linejoin:round"
       d="M 336.20397,63.201133 326.4306,35.835694 305.58074,25.084986 318.6119,66.784703 344.34844,80.141643 388.00283,66.784703 366.17564,56.685552 Z"
       id="path7" /><path
       style="opacity:1;fill:#f27226;fill-opacity:1;fill-rule:evenodd;stroke-width:0.7;stroke-linecap:round;stroke-linejoin:round"
       d="m 226.90516,137.52526 10.36622,-22.11462 c -56.65111,-16.915725 -79.88784,38.55041 -57.12942,45.84176 15.58214,4.99221 13.23557,14.10951 1.84289,15.43415 -13.05071,1.51742 -22.34498,-5.75901 -22.34498,-5.75901 l -16.12524,16.3556 c 0,0 9.90551,7.37154 24.87894,8.29298 14.97344,0.92144 36.4245,-9.39919 44.45959,-25.33966 12.02745,-23.86073 -8.48281,-25.6941 -12.43947,-28.79508 -3.97646,-3.11649 -0.92144,-6.68045 0.69108,-8.06261 1.61253,-1.38217 12.43948,-4.60721 25.80039,4.14649 z"
       id="path8"
       sodipodi:nodetypes="ccssccssssc" /><path
       id="path9"
       style="opacity:1;fill:#ea2028;fill-rule:evenodd;stroke-width:0.889678;stroke-linecap:round;stroke-linejoin:round"
       d="m 99.028219,135.93776 c -20.155433,20.62946 -26.817735,46.46156 -10.814228,57.93447 16.003519,11.47291 42.542859,-2.52309 62.548609,-23.29775 42.97925,-44.63114 -1.01171,-86.552313 -51.734381,-34.63672 z m 34.107421,-5.04101 c 1.57399,0.0531 3.10436,0.45238 4.5586,1.24609 7.75605,4.23317 4.50638,15.33086 -2.77213,26.20898 -7.27867,10.87807 -16.8078,20.02425 -24.56381,15.79102 -7.75601,-4.23315 -4.88409,-17.49105 2.39453,-28.36914 5.91391,-8.83838 13.56222,-15.10717 20.38281,-14.87695 z"
       sodipodi:nodetypes="sssssscsss" /></g></svg>
